<svg width="48" height="48" viewBox="0 0 48 48" fill="none" xmlns="http://www.w3.org/2000/svg">
<g clip-path="url(#clip0_17_24)">
<path d="M48 24C48 10.7453 37.2547 0 24 0C10.7453 0 0 10.7453 0 24C0 35.255 7.74912 44.6995 18.2026 47.2934V31.3344H13.2538V24H18.2026V20.8397C18.2026 12.671 21.8995 8.8848 29.9194 8.8848C31.44 8.8848 34.0637 9.18336 35.137 9.48096V16.129C34.5706 16.0694 33.5866 16.0397 32.3645 16.0397C28.4294 16.0397 26.9088 17.5306 26.9088 21.4061V24H34.7482L33.4013 31.3344H26.9088V47.8243C38.7926 46.3891 48.001 36.2707 48.001 24H48Z" fill="#0866FF"/>
<path d="M33.4003 31.3344L34.7472 24H26.9078V21.4061C26.9078 17.5306 28.4285 16.0397 32.3635 16.0397C33.5856 16.0397 34.5696 16.0694 35.136 16.129V9.48096C34.0627 9.1824 31.439 8.8848 29.9184 8.8848C21.8986 8.8848 18.2016 12.671 18.2016 20.8397V24H13.2528V31.3344H18.2016V47.2934C20.0582 47.7542 22.0003 48 23.999 48C24.983 48 25.9536 47.9395 26.9069 47.8243V31.3344H33.3994H33.4003Z" fill="white"/>
</g>
<defs>
<clipPath id="clip0_17_24">
<rect width="48" height="48" fill="white"/>
</clipPath>
</defs>
</svg>
